<svg width="254" height="203" viewBox="0 0 254 203" fill="none" xmlns="http://www.w3.org/2000/svg">
<path d="M135.501 168.282C204.36 162.146 197.807 187.079 158.115 191.855C147.693 192.563 108.339 193.87 34.3004 193.425C-58.2483 192.869 70.0672 176.559 76.6885 179.015C83.3098 181.471 66.6432 174.418 135.501 168.282Z" fill="#85A7F1"/>
<path fill-rule="evenodd" clip-rule="evenodd" d="M150.274 8.43869C148.957 7.57158 147.187 7.93598 146.32 9.2526L134.348 27.4302C133.798 28.2666 133.744 29.2862 134.115 30.1409L133.89 33.9642L136.837 32.4868L153.34 43.3557C154.657 44.2228 156.427 43.8584 157.294 42.5418L169.265 24.3642C170.133 23.0476 169.768 21.2773 168.452 20.4102L150.274 8.43869Z" fill="#EEF3FF"/>
<path d="M162.11 22.6509L150.08 14.7277C149.253 14.183 148.138 14.419 147.593 15.2461L141.643 24.2641C141.099 25.0912 141.33 26.2136 142.157 26.7583L154.187 34.6815C155.014 35.2262 156.137 34.9952 156.682 34.1681L162.624 25.1451C163.169 24.318 162.938 23.1956 162.11 22.6509ZM160.13 25.6585L151.638 25.4565L148.099 17.7354L149.089 16.2315L152.629 23.9527L161.12 24.1547L160.13 25.6585Z" fill="#ECC78B"/>
<path d="M150.473 28.3731L150.253 27.5492C149.465 24.6298 148.945 22.7034 149.838 21.3479C150.565 20.2433 152.025 19.9604 153.155 20.7048C153.794 21.1254 154.215 21.8195 154.313 22.542C155.016 22.3464 155.82 22.4596 156.458 22.8801C157.589 23.6245 157.905 25.0773 157.178 26.1818C156.285 27.5374 154.31 27.8202 151.314 28.2538L150.473 28.3731Z" fill="#CA891E"/>
<path fill-rule="evenodd" clip-rule="evenodd" d="M247.313 138.107C248.974 135.771 243.294 134.227 235.619 137.467C226.025 141.517 213.975 145.364 206.516 141.076C184.304 128.306 173.387 112.351 167.044 103.08C165.916 101.432 164.933 99.9956 164.057 98.8254C163.678 97.8959 163.039 97.0595 162.161 96.4349C161.983 96.3087 161.801 96.1946 161.614 96.0924C161.154 95.7262 160.723 95.5029 160.31 95.4387C159.942 95.3814 159.599 95.3808 159.281 95.4297C157.473 95.3354 155.657 96.1395 154.53 97.7242C152.876 100.051 153.3 103.229 155.429 105.05C155.469 105.203 155.51 105.357 155.552 105.514C158.649 117.189 164.455 139.075 200.671 155.145C231.781 168.949 247.735 150.556 250.391 146.37C251.406 144.771 251.5 143.372 251.112 142.184C250.823 140.924 250.088 139.76 248.95 138.952C248.487 138.622 247.989 138.375 247.476 138.208C247.42 138.173 247.366 138.14 247.313 138.107Z" fill="#ECD6B0"/>
<g style="mix-blend-mode:multiply" opacity="0.32">
<path d="M172.074 110.204C171.136 108.797 165.038 100.04 162.223 95.6616C158.939 99.8837 159.877 118.179 159.877 119.587C159.877 120.994 170.667 136.006 168.791 132.722C166.914 129.438 172.897 111.439 172.074 110.204Z" fill="#557CD2"/>
</g>
<path fill-rule="evenodd" clip-rule="evenodd" d="M113.383 69.2258C131.44 74.3293 166.793 88.9893 163.748 106.8C163.473 108.409 163.141 110 162.76 111.566C162.798 114.813 162.28 118.155 161.139 121.479L142.913 174.617L125.438 170.061L114.442 141.367C114.088 140.442 113.467 139.648 112.65 139.075L106.087 134.473L102.481 126.657L102.051 116.335C101.769 109.559 103.829 103.231 107.453 97.9996C103.715 87.3449 104.414 77.081 113.383 69.2258Z" fill="#FFE6BD"/>
<path d="M32.4009 85.2272C35.0506 69.5813 48.6032 58.1309 64.4719 58.1309H83.5211C102.197 58.1309 117.037 73.8215 115.998 92.4683L111.089 180.571L90.9164 179.164L73.6481 148.081C71.7981 144.751 67.1809 144.317 64.7432 147.244L36.9897 180.571L15.8572 182.917L32.4009 85.2272Z" fill="#FFE6BD"/>
<path d="M112.496 68.9229C96.5462 80.1817 68.8681 90.9715 36.4989 69.8611C25.24 87.6876 73.5593 93.3171 89.0403 87.2185C95.6079 84.6313 117.187 72.6758 112.496 68.9229Z" fill="#4866D3"/>
<path d="M112.496 67.9839C96.5462 79.2428 68.8681 90.0325 36.4989 68.9221C25.24 86.7487 73.5593 92.3781 89.0403 86.2796C95.6079 83.6923 117.187 71.7368 112.496 67.9839Z" fill="#557CD2"/>
<g style="mix-blend-mode:multiply">
<path d="M60.8927 151.956L36.7666 180.127C32.4634 184.147 20.3858 181.199 27.8226 177.885C35.2594 174.571 50.0283 131.404 56.1663 134.148C61.0767 136.343 62.3861 144.808 60.8927 151.956Z" fill="#C8C0B2" fill-opacity="0.32"/>
</g>
<rect x="9.28967" y="179.165" width="25.3325" height="13.1354" rx="6.56768" fill="#CA891E"/>
<circle cx="26.1775" cy="180.103" r="12.1971" fill="#CA891E"/>
<rect width="25.3325" height="13.1354" rx="6.56768" transform="matrix(-1 -8.74228e-08 -8.74228e-08 1 115.31 179.165)" fill="#CA891E"/>
<circle r="12.1971" transform="matrix(-1 -8.74228e-08 -8.74228e-08 1 98.4226 180.103)" fill="#CA891E"/>
<circle cx="241.972" cy="140.696" r="1.87648" fill="#CA891E"/>
<circle cx="239.158" cy="143.51" r="0.93824" fill="#CA891E"/>
<circle cx="69.8058" cy="85.8102" r="1.40736" fill="#334FB2"/>
<circle cx="69.3365" cy="97.5384" r="12.1971" fill="#A76C0C"/>
<circle cx="69.3369" cy="97.5377" r="11.2589" fill="#CA891E"/>
<circle cx="69.3369" cy="97.5367" r="9.3824" fill="#FAB748"/>
<g style="mix-blend-mode:multiply">
<path d="M65.5837 108.327C75.4353 110.204 80.5956 103.756 80.5956 97.5377C80.5956 91.3196 75.5548 86.2788 69.3367 86.2788L65.5837 108.327Z" fill="#557CD2" fill-opacity="0.19"/>
</g>
<path d="M64.3391 101.81C63.956 101.81 63.6792 101.752 63.5089 101.635C63.3493 101.517 63.2482 101.368 63.2056 101.188C63.163 100.996 63.1417 100.794 63.1417 100.581V91.8478C63.1417 91.6456 63.163 91.4593 63.2056 91.289C63.2482 91.1081 63.3546 90.9591 63.5249 90.842C63.6952 90.7249 63.9773 90.6664 64.3711 90.6664C64.6372 90.6664 64.8394 90.6823 64.9778 90.7143C65.1161 90.7462 65.2172 90.7941 65.2811 90.858C65.345 90.9112 65.4141 90.975 65.4886 91.0496L69.0808 95.903H68.8414L72.4495 91.0496C72.5347 90.9431 72.6198 90.8633 72.705 90.8101C72.7901 90.7569 72.8966 90.7196 73.0243 90.6983C73.1626 90.677 73.3542 90.6664 73.599 90.6664C73.9822 90.6664 74.2589 90.7249 74.4292 90.842C74.5995 90.9591 74.706 91.1134 74.7485 91.305C74.7911 91.4859 74.8124 91.6775 74.8124 91.8797V100.613C74.8124 100.815 74.7911 101.007 74.7485 101.188C74.706 101.368 74.5995 101.517 74.4292 101.635C74.2589 101.752 73.9769 101.81 73.5831 101.81C73.1999 101.81 72.9232 101.752 72.7529 101.635C72.5826 101.517 72.4761 101.363 72.4336 101.172C72.391 100.98 72.3697 100.783 72.3697 100.581V94.8812L69.9909 98.2499C69.9483 98.3031 69.8898 98.3776 69.8152 98.4734C69.7407 98.5586 69.6343 98.6331 69.4959 98.697C69.3682 98.7608 69.1926 98.7927 68.9691 98.7927C68.7349 98.7927 68.5487 98.7608 68.4103 98.697C68.2826 98.6331 68.1815 98.5586 68.107 98.4734C68.0325 98.3883 67.9686 98.3138 67.9154 98.2499L65.5525 94.8972V100.613C65.5525 100.815 65.5312 101.007 65.4886 101.188C65.4461 101.368 65.3396 101.517 65.1693 101.635C65.0097 101.752 64.7329 101.81 64.3391 101.81Z" fill="#A76C0C"/>
<path d="M64.3393 100.582C63.9561 100.582 63.6794 100.524 63.5091 100.407C63.3494 100.289 63.2483 100.14 63.2057 99.9595C63.1631 99.7679 63.1419 99.5657 63.1419 99.3528V90.6198C63.1419 90.4176 63.1631 90.2313 63.2057 90.061C63.2483 89.8801 63.3547 89.7311 63.525 89.614C63.6953 89.4969 63.9774 89.4384 64.3712 89.4384C64.6373 89.4384 64.8395 89.4543 64.9779 89.4863C65.1162 89.5182 65.2174 89.5661 65.2812 89.6299C65.3451 89.6832 65.4143 89.747 65.4888 89.8215L69.081 94.675H68.8415L72.4497 89.8215C72.5348 89.7151 72.6199 89.6353 72.7051 89.582C72.7902 89.5288 72.8967 89.4916 73.0244 89.4703C73.1628 89.449 73.3544 89.4384 73.5992 89.4384C73.9823 89.4384 74.2591 89.4969 74.4294 89.614C74.5997 89.7311 74.7061 89.8854 74.7487 90.077C74.7912 90.2579 74.8125 90.4495 74.8125 90.6517V99.3848C74.8125 99.587 74.7912 99.7786 74.7487 99.9595C74.7061 100.14 74.5997 100.289 74.4294 100.407C74.2591 100.524 73.977 100.582 73.5832 100.582C73.2 100.582 72.9233 100.524 72.753 100.407C72.5827 100.289 72.4763 100.135 72.4337 99.9436C72.3911 99.752 72.3698 99.5551 72.3698 99.3528V93.6532L69.991 97.0219C69.9484 97.0751 69.8899 97.1496 69.8154 97.2454C69.7409 97.3306 69.6344 97.4051 69.4961 97.4689C69.3683 97.5328 69.1927 97.5647 68.9692 97.5647C68.735 97.5647 68.5488 97.5328 68.4104 97.4689C68.2827 97.4051 68.1816 97.3306 68.1071 97.2454C68.0326 97.1603 67.9687 97.0858 67.9155 97.0219L65.5526 93.6692V99.3848C65.5526 99.587 65.5313 99.7786 65.4888 99.9595C65.4462 100.14 65.3398 100.289 65.1695 100.407C65.0098 100.524 64.7331 100.582 64.3393 100.582Z" fill="#FFE6BD"/>
<path d="M65.2447 91.1071C64.5429 91.0268 63.1924 91.6187 64.4716 94.1246C64.9249 94.8452 65.1758 93.5424 64.9102 92.8442C64.6445 92.1461 66.061 91.2006 65.2447 91.1071Z" fill="white"/>
<g style="mix-blend-mode:multiply">
<path d="M112.965 68.9221C115.31 69.6418 127.508 130.532 120.002 155.708L124.693 168.374L145.803 164.621C151.589 152.112 164.589 113.942 165.037 106.92C166.714 80.6499 104.88 66.4412 112.965 68.9221Z" fill="#557CD2" fill-opacity="0.32"/>
</g>
<rect x="117.825" y="167.808" width="25.3325" height="13.1354" rx="6.56768" transform="rotate(-3.83153 117.825 167.808)" fill="#CA891E"/>
<circle cx="134.739" cy="167.616" r="12.1971" transform="rotate(-3.83153 134.739 167.616)" fill="#CA891E"/>
<circle cx="142.52" cy="166.028" r="0.93824" fill="#9E680D"/>
<circle cx="141.112" cy="167.434" r="0.46912" fill="#9E680D"/>
<path d="M105.096 0C106.205 8.25122 106.02 14.9015 104.357 19.1502L89.0863 7.75861C92.1036 4.6798 98.2612 0.923644 105.096 0Z" fill="#ECD5B0"/>
<path d="M103.126 18.5961L96.7834 10.4065C96.7834 10.4065 97.9533 5.91139 103.926 2.771C105.774 9.91385 103.126 18.5961 103.126 18.5961Z" fill="#E7BB72"/>
<path d="M100.724 16.7489L96.7834 11.6996C96.7834 11.6996 98.3844 8.62083 102.079 6.65039C99.9854 11.2686 100.724 16.7489 100.724 16.7489Z" fill="#DAA44B"/>
<path d="M120.99 59.5774C107.431 56.2518 91.3771 61.3951 85.386 64.3914C76.9337 61.469 32.0934 54.1928 32.0399 56.2458C31.9871 58.2711 29.9175 63.5086 28.7254 65.6167C81.5415 107.187 120.972 60.2525 120.99 59.5774Z" fill="#CA891E"/>
<path d="M36.9531 4.63867C35.8448 12.8899 36.0295 19.5401 37.692 23.7889L52.963 12.3973C49.9457 9.31847 43.7881 5.56232 36.9531 4.63867Z" fill="#ECD5B0"/>
<path d="M38.9236 23.2348L45.266 15.0451C45.266 15.0451 44.096 10.5501 38.1231 7.40967C36.2758 14.5525 38.9236 23.2348 38.9236 23.2348Z" fill="#E7BB72"/>
<path d="M41.325 21.3876L45.2659 16.3383C45.2659 16.3383 43.6649 13.2595 39.9703 11.2891C42.0639 15.9073 41.325 21.3876 41.325 21.3876Z" fill="#DAA44B"/>
<path d="M86.7132 63.6411L104.095 64.4188" stroke="#9B650D" stroke-width="0.71934" stroke-linecap="round"/>
<path d="M36.5889 26.9282C32.4083 39.3114 30.9758 56.6176 27.5885 63.3123C73.1132 97.5415 110.818 71.9472 123.98 54.8713C113.238 42.6463 111.691 28.8298 107.431 21.98C94.0755 0.507386 44.428 3.70874 36.5889 26.9282Z" fill="#FFE6BD"/>
<circle cx="60.6781" cy="39.2069" r="9.35142" fill="#F1CC90"/>
<circle cx="59.9587" cy="39.9265" r="8.63208" fill="white"/>
<circle cx="62.1168" cy="39.926" r="5.03538" fill="#CA891E"/>
<path d="M89.5805 10.0608C89.5805 -5.41593 56.7893 10.3064 49.3694 13.3773C40.7527 17.0435 52.6006 13.746 56.909 22.2217C61.2173 30.6975 73.0652 27.3809 71.6291 25.9068C70.193 24.4328 62.2944 11.9035 77.3736 23.6958C89.4369 33.1296 95.4447 26.8896 96.043 22.2217C99.6334 10.798 89.5805 10.0608 89.5805 10.0608Z" fill="#E7BB72"/>
<path d="M124.34 54.3133C109.953 51.1482 93.1683 57.0707 86.934 60.4276C77.9422 57.5502 30.4658 49.9971 30.4658 53.2342C30.4658 55.3923 28.4277 61.0271 27.2288 63.305C84.0566 106.106 124.34 55.7521 124.34 54.3133Z" fill="#CA891E"/>
<ellipse cx="75.2985" cy="60.0476" rx="12.2415" ry="7.21606" fill="#9B650D"/>
<path d="M66.4329 59.3484L49.1687 50.7163" stroke="#FFD591" stroke-width="0.71934" stroke-linecap="round"/>
<path d="M90.8903 8.99453C90.8903 -6.11093 58.0405 9.2343 50.6073 12.2316C41.9752 15.8098 53.8443 12.5914 58.1604 20.8638C62.4764 29.1362 74.3455 25.8992 72.9068 24.4605C71.4682 23.0218 63.5554 10.7931 78.6616 22.3025C90.7465 31.5101 96.765 25.4197 97.3644 20.8638C100.961 9.71414 90.8903 8.99453 90.8903 8.99453Z" fill="#CA891E"/>
<path d="M66.6056 62.6521L49.8128 67.2051" stroke="#9B650D" stroke-width="0.71934" stroke-linecap="round"/>
<path d="M93.4675 57.0841C93.4675 61.8515 82.6966 66.3618 75.9428 66.3618C69.189 66.3618 60.0933 63.269 60.0933 58.5017C60.0933 53.7343 68.0825 51.9297 75.0649 52.8742C82.128 51.5432 91.9212 52.8742 93.4675 57.0841Z" fill="#F1CC90"/>
<path d="M74.3455 41.3647L79.3293 57.0104H69.3618L74.3455 41.3647Z" fill="#F1CC90"/>
<path fill-rule="evenodd" clip-rule="evenodd" d="M73.3658 60.7421L75.1641 58.7593L75.8835 60.3456L76.3251 60.9174H76.9624C76.9624 61.712 76.1573 62.3561 75.1641 62.3561C74.1709 62.3561 73.3657 61.712 73.3657 60.9174H73.6906C73.5335 60.86 73.4187 60.8005 73.3658 60.7421Z" fill="#E8BB72"/>
<path d="M74.6542 55.2802C76.7272 60.0377 72.3348 64.6868 63.3147 59.0171" stroke="#CA891E" stroke-width="0.71934"/>
<path d="M75.2985 55.4089C74.4772 57.9062 75.5562 66.4907 88.8286 58.5015" stroke="#CA891E" stroke-width="0.71934"/>
<path d="M75.0564 58.8982L74.587 58.536C72.9199 57.2545 71.8193 56.4093 71.8193 55.372C71.8193 54.5269 72.6027 53.8628 73.5997 53.8628C74.1629 53.8628 74.7035 54.0851 75.0564 54.4363C75.4092 54.0851 75.9498 53.8628 76.513 53.8628C77.51 53.8628 78.2934 54.5269 78.2934 55.372C78.2934 56.4093 77.1928 57.2545 75.5257 58.5387L75.0564 58.8982Z" fill="#CA891E"/>
<circle cx="63.5555" cy="36.3294" r="2.15802" fill="white"/>
<circle cx="62.4765" cy="38.1278" r="1.07901" fill="white"/>
<path d="M68.5908 39.5664H51.3267C51.3267 36.689 53.6285 31.2939 59.9587 31.2939C66.2889 31.2939 68.5908 36.3293 68.5908 39.5664Z" fill="#557CD2" fill-opacity="0.2"/>
<circle cx="90.964" cy="39.2469" r="9.35142" fill="#F1CC90"/>
<circle cx="90.2446" cy="39.9656" r="8.63208" fill="white"/>
<circle cx="92.4027" cy="39.966" r="5.03538" fill="#CA891E"/>
<circle cx="93.8414" cy="36.3694" r="2.15802" fill="white"/>
<circle cx="92.7624" cy="38.1674" r="1.07901" fill="white"/>
<path d="M98.8767 39.6059H81.6125C81.6125 36.7285 83.9144 31.3335 90.2446 31.3335C96.5748 31.3335 98.8767 36.3689 98.8767 39.6059Z" fill="#557CD2" fill-opacity="0.2"/>
<path d="M66.4329 58.6292L49.1687 49.9971" stroke="#EFBD6C" stroke-width="0.71934" stroke-linecap="round"/>
<path d="M66.4486 61.9505L49.6558 66.5034" stroke="#EFBD6C" stroke-width="0.71934" stroke-linecap="round"/>
<path d="M86.2515 61.8868L103.209 65.7808" stroke="#EFBD6C" stroke-width="0.71934" stroke-linecap="round"/>
<circle r="0.35967" transform="matrix(1 0 0 -1 86.0958 61.8488)" fill="#CA891E"/>
<circle r="0.35967" transform="matrix(-1 0 0 1 66.7926 58.9886)" fill="#CA891E"/>
<circle cx="66.7055" cy="61.9897" r="0.35967" transform="rotate(167.392 66.7055 61.9897)" fill="#CA891E"/>
<circle cx="41.9753" cy="27.6974" r="0.71934" fill="#CA891E"/>
<circle cx="40.8963" cy="28.7762" r="0.35967" fill="#CA891E"/>
<circle cx="108.995" cy="60.8448" r="0.71934" transform="rotate(84.9518 108.995 60.8448)" fill="#F3B245"/>
<circle cx="107.825" cy="59.8645" r="0.35967" transform="rotate(84.9518 107.825 59.8645)" fill="#F3B245"/>
<circle cx="39.9382" cy="63.003" r="0.71934" transform="rotate(84.9518 39.9382 63.003)" fill="#F3B245"/>
<circle cx="38.7685" cy="62.0227" r="0.35967" transform="rotate(84.9518 38.7685 62.0227)" fill="#F3B245"/>
<path d="M94.1444 11.6022C95.1019 11.3326 97.1126 11.8516 95.8981 15.6233C95.43 16.7271 94.7881 14.9723 95.0003 13.9419C95.2125 12.9115 93.0305 11.9158 94.1444 11.6022Z" fill="#FFF0D7"/>
<path d="M86.5958 4.67101C87.4872 4.22946 89.5591 4.36887 89.0609 8.29982C88.8043 9.47102 87.8498 7.86466 87.8684 6.81282C87.887 5.76098 85.5588 5.18463 86.5958 4.67101Z" fill="#FFF0D7"/>
<path d="M60.7376 42.5234C55.3289 42.5234 50.9443 45.5234 50.9443 49.2241C58.8411 48.5043 63.1511 48.4392 70.5308 49.2241C70.5308 45.5234 66.1462 42.5234 60.7376 42.5234Z" fill="#FFE6BD"/>
<path d="M91.4058 42.5234C85.9971 42.5234 81.6125 45.2926 81.6125 48.7086C88.8736 48.7824 93.1649 48.7684 101.199 48.7086C101.199 45.2926 96.8144 42.5234 91.4058 42.5234Z" fill="#FFE6BD"/>
<path d="M86.4554 57.0286L103.72 48.3965" stroke="#FFD591" stroke-width="0.71934" stroke-linecap="round"/>
<path d="M86.4554 56.3098L103.72 47.6777" stroke="#EFBD6C" stroke-width="0.71934" stroke-linecap="round"/>
<circle cx="86.0958" cy="56.6692" r="0.35967" fill="#CA891E"/>
<circle r="0.35967" transform="matrix(-1 0 0 1 55.4274 45.4598)" fill="#CA891E"/>
<circle r="0.35967" transform="matrix(-1 0 0 1 58.0047 47.5218)" fill="#CA891E"/>
<circle r="0.35967" transform="matrix(-1 0 0 1 61.0972 44.9446)" fill="#CA891E"/>
<circle r="0.35967" transform="matrix(-1 0 0 1 88.1574 45.4598)" fill="#CA891E"/>
<circle r="0.35967" transform="matrix(-1 0 0 1 91.5078 44.6868)" fill="#CA891E"/>
<circle r="0.35967" transform="matrix(-1 0 0 1 94.6003 46.7488)" fill="#CA891E"/>
</svg>
