<svg width="209" height="192" viewBox="0 0 209 192" fill="none" xmlns="http://www.w3.org/2000/svg">
<path d="M3.92768 184.29C3.13356 184.29 2.5648 184.172 2.22139 183.936C1.89945 183.7 1.69556 183.388 1.6097 183.002C1.52385 182.616 1.48093 182.219 1.48093 181.811V164.233C1.48093 163.825 1.52385 163.439 1.6097 163.074C1.69556 162.688 1.91018 162.376 2.25359 162.14C2.59699 161.904 3.16575 161.786 3.95987 161.786H10.5597C11.4611 161.786 12.3625 161.947 13.264 162.269C14.1869 162.591 15.0346 163.095 15.8073 163.782C16.6014 164.447 17.2346 165.274 17.7068 166.261C18.2004 167.248 18.4472 168.407 18.4472 169.738C18.4472 171.047 18.2004 172.195 17.7068 173.183C17.2346 174.17 16.6014 174.996 15.8073 175.662C15.0346 176.306 14.1869 176.799 13.264 177.143C12.3411 177.465 11.4289 177.626 10.5275 177.626H6.40662V181.843C6.40662 182.251 6.3637 182.648 6.27785 183.034C6.192 183.399 5.97737 183.7 5.63397 183.936C5.29056 184.172 4.7218 184.29 3.92768 184.29ZM6.40662 172.732H10.5597C11.0318 172.732 11.4933 172.635 11.944 172.442C12.4162 172.228 12.8025 171.895 13.103 171.444C13.4249 170.994 13.5859 170.414 13.5859 169.706C13.5859 169.105 13.4571 168.579 13.1996 168.128C12.942 167.678 12.5772 167.323 12.105 167.066C11.6543 166.808 11.1284 166.68 10.5275 166.68H6.40662V172.732ZM23.266 184.29C22.4934 184.29 21.9353 184.182 21.5919 183.968C21.2485 183.732 21.0339 183.421 20.948 183.034C20.8837 182.648 20.8515 182.251 20.8515 181.843V164.233C20.8515 163.288 21.0339 162.645 21.3988 162.301C21.7636 161.958 22.4182 161.786 23.3626 161.786H35.532C35.9612 161.786 36.3583 161.829 36.7231 161.915C37.088 161.979 37.3885 162.183 37.6246 162.527C37.8607 162.87 37.9787 163.449 37.9787 164.265C37.9787 165.038 37.8607 165.596 37.6246 165.939C37.3885 166.283 37.0773 166.497 36.691 166.583C36.3261 166.647 35.929 166.68 35.4998 166.68H25.745V170.833H32.3769C32.8062 170.833 33.1818 170.865 33.5037 170.929C33.8471 170.994 34.1154 171.176 34.3086 171.476C34.5018 171.777 34.5983 172.281 34.5983 172.99C34.5983 173.655 34.5018 174.138 34.3086 174.438C34.1154 174.739 33.8471 174.921 33.5037 174.986C33.1603 175.05 32.7633 175.082 32.3126 175.082H25.745V179.396H35.532C35.9612 179.396 36.3583 179.439 36.7231 179.525C37.088 179.611 37.3885 179.825 37.6246 180.169C37.8607 180.491 37.9787 181.06 37.9787 181.875C37.9787 182.648 37.8607 183.206 37.6246 183.549C37.3885 183.893 37.0773 184.097 36.691 184.161C36.3261 184.247 35.929 184.29 35.4998 184.29H23.266ZM56.9524 161.754C57.3172 161.754 57.6499 161.786 57.9504 161.85C58.2509 161.915 58.4977 162.097 58.6908 162.398C58.9055 162.677 59.0128 163.17 59.0128 163.879C59.0128 164.544 58.9055 165.027 58.6908 165.327C58.4977 165.628 58.2401 165.81 57.9182 165.875C57.5962 165.939 57.2528 165.971 56.888 165.971H51.7047V181.907C51.7047 182.315 51.6618 182.702 51.5759 183.066C51.5116 183.431 51.3077 183.732 50.9643 183.968C50.6423 184.182 50.0843 184.29 49.2902 184.29C48.5175 184.29 47.9595 184.182 47.6161 183.968C47.2727 183.732 47.0688 183.431 47.0044 183.066C46.94 182.68 46.9078 182.283 46.9078 181.875V165.971H41.6602C41.3168 165.971 40.9841 165.939 40.6621 165.875C40.3402 165.789 40.0827 165.606 39.8895 165.327C39.6963 165.027 39.5997 164.533 39.5997 163.846C39.5997 163.16 39.6963 162.677 39.8895 162.398C40.0827 162.097 40.3402 161.915 40.6621 161.85C40.9841 161.786 41.3168 161.754 41.6602 161.754H56.9524ZM88.9271 180.877C89.1847 181.414 89.3242 181.875 89.3456 182.262C89.3671 182.626 89.2491 182.959 88.9915 183.26C88.7554 183.539 88.3584 183.818 87.8003 184.097C86.9418 184.504 86.2765 184.622 85.8043 184.451C85.3321 184.3 84.8921 183.796 84.4843 182.938L78.1743 169.738L71.8964 182.938C71.4672 183.775 71.0165 184.268 70.5443 184.419C70.0936 184.59 69.439 184.472 68.5805 184.064C68.0224 183.807 67.6146 183.539 67.3571 183.26C67.121 182.959 67.0137 182.616 67.0351 182.229C67.0566 181.822 67.2068 181.349 67.4859 180.813L75.9529 163.203C76.1675 162.773 76.4787 162.43 76.8865 162.172C77.3158 161.915 77.7558 161.786 78.2065 161.786C78.5284 161.786 78.8289 161.85 79.1079 161.979C79.3869 162.087 79.6338 162.248 79.8484 162.462C80.0845 162.677 80.2776 162.934 80.4279 163.235L88.9271 180.877ZM72.7657 179.042L74.7617 174.889H81.6191L83.6151 179.042H72.7657ZM101.418 184.612C99.8726 184.612 98.4131 184.322 97.0395 183.742C95.6874 183.141 94.4962 182.326 93.466 181.296C92.4572 180.244 91.6524 179.031 91.0514 177.658C90.4719 176.284 90.1822 174.803 90.1822 173.215C90.1822 171.605 90.4612 170.103 91.0192 168.708C91.5987 167.291 92.3821 166.046 93.3694 164.973C94.3781 163.9 95.5479 163.063 96.8786 162.462C98.2092 161.861 99.6365 161.561 101.16 161.561C102.706 161.561 104.154 161.861 105.507 162.462C106.88 163.042 108.071 163.857 109.08 164.909C110.089 165.961 110.883 167.184 111.462 168.579C112.063 169.974 112.364 171.487 112.364 173.118C112.364 174.685 112.074 176.166 111.495 177.561C110.937 178.935 110.153 180.158 109.145 181.231C108.136 182.283 106.966 183.109 105.635 183.71C104.326 184.311 102.92 184.612 101.418 184.612ZM101.257 179.718C102.115 179.718 102.92 179.546 103.672 179.203C104.423 178.86 105.077 178.398 105.635 177.819C106.215 177.218 106.655 176.52 106.955 175.726C107.277 174.911 107.438 174.031 107.438 173.086C107.438 172.185 107.277 171.337 106.955 170.543C106.633 169.727 106.183 169.019 105.603 168.418C105.045 167.796 104.391 167.313 103.639 166.969C102.91 166.626 102.115 166.454 101.257 166.454C100.42 166.454 99.6258 166.626 98.8746 166.969C98.1449 167.313 97.4902 167.796 96.9108 168.418C96.3527 169.019 95.902 169.727 95.5586 170.543C95.2367 171.337 95.0757 172.195 95.0757 173.118C95.0757 174.02 95.2367 174.878 95.5586 175.694C95.902 176.488 96.3527 177.186 96.9108 177.787C97.4902 178.387 98.1449 178.86 98.8746 179.203C99.6043 179.546 100.398 179.718 101.257 179.718ZM124.914 184.29C124.141 184.29 123.583 184.182 123.24 183.968C122.896 183.732 122.682 183.421 122.596 183.034C122.51 182.648 122.467 182.251 122.467 181.843V164.233C122.467 163.804 122.499 163.407 122.564 163.042C122.65 162.677 122.864 162.376 123.208 162.14C123.551 161.904 124.12 161.786 124.914 161.786C125.729 161.786 126.298 161.904 126.62 162.14C126.964 162.376 127.167 162.677 127.232 163.042C127.318 163.407 127.361 163.804 127.361 164.233V180.04H136.182C136.547 180.04 136.89 180.072 137.212 180.137C137.534 180.201 137.791 180.384 137.985 180.684C138.199 180.984 138.307 181.478 138.307 182.165C138.307 182.83 138.199 183.324 137.985 183.646C137.77 183.946 137.502 184.129 137.18 184.193C136.879 184.258 136.547 184.29 136.182 184.29H124.914ZM161.049 180.877C161.307 181.414 161.446 181.875 161.468 182.262C161.489 182.626 161.371 182.959 161.114 183.26C160.878 183.539 160.481 183.818 159.923 184.097C159.064 184.504 158.399 184.622 157.927 184.451C157.454 184.3 157.014 183.796 156.607 182.938L150.297 169.738L144.019 182.938C143.59 183.775 143.139 184.268 142.667 184.419C142.216 184.59 141.561 184.472 140.703 184.064C140.145 183.807 139.737 183.539 139.479 183.26C139.243 182.959 139.136 182.616 139.157 182.229C139.179 181.822 139.329 181.349 139.608 180.813L148.075 163.203C148.29 162.773 148.601 162.43 149.009 162.172C149.438 161.915 149.878 161.786 150.329 161.786C150.651 161.786 150.951 161.85 151.23 161.979C151.509 162.087 151.756 162.248 151.971 162.462C152.207 162.677 152.4 162.934 152.55 163.235L161.049 180.877ZM144.888 179.042L146.884 174.889H153.741L155.737 179.042H144.888ZM165.46 184.29C164.708 184.29 164.161 184.172 163.818 183.936C163.496 183.7 163.281 183.399 163.174 183.034C163.066 182.648 163.013 182.24 163.013 181.811V164.201C163.013 163.793 163.056 163.407 163.142 163.042C163.227 162.655 163.442 162.344 163.785 162.108C164.129 161.872 164.698 161.765 165.492 161.786H171.287C172.832 161.786 174.27 162.065 175.601 162.623C176.931 163.181 178.101 163.965 179.11 164.973C180.119 165.982 180.902 167.162 181.46 168.515C182.018 169.867 182.297 171.337 182.297 172.925C182.297 174.535 182.018 176.037 181.46 177.432C180.902 178.806 180.119 180.008 179.11 181.038C178.101 182.047 176.921 182.841 175.568 183.421C174.238 184 172.778 184.29 171.19 184.29H165.46ZM167.906 179.364H171.287C172.446 179.364 173.487 179.096 174.409 178.559C175.332 178.001 176.062 177.25 176.599 176.306C177.135 175.361 177.404 174.277 177.404 173.054C177.404 171.831 177.135 170.736 176.599 169.77C176.062 168.804 175.332 168.053 174.409 167.517C173.487 166.959 172.435 166.68 171.254 166.68H167.906V179.364ZM195.013 184.612C193.468 184.612 192.009 184.322 190.635 183.742C189.283 183.141 188.092 182.326 187.062 181.296C186.053 180.244 185.248 179.031 184.647 177.658C184.067 176.284 183.778 174.803 183.778 173.215C183.778 171.605 184.057 170.103 184.615 168.708C185.194 167.291 185.978 166.046 186.965 164.973C187.974 163.9 189.143 163.063 190.474 162.462C191.805 161.861 193.232 161.561 194.756 161.561C196.301 161.561 197.75 161.861 199.102 162.462C200.476 163.042 201.667 163.857 202.676 164.909C203.684 165.961 204.479 167.184 205.058 168.579C205.659 169.974 205.959 171.487 205.959 173.118C205.959 174.685 205.67 176.166 205.09 177.561C204.532 178.935 203.749 180.158 202.74 181.231C201.731 182.283 200.562 183.109 199.231 183.71C197.922 184.311 196.516 184.612 195.013 184.612ZM194.852 179.718C195.711 179.718 196.516 179.546 197.267 179.203C198.018 178.86 198.673 178.398 199.231 177.819C199.81 177.218 200.25 176.52 200.551 175.726C200.873 174.911 201.034 174.031 201.034 173.086C201.034 172.185 200.873 171.337 200.551 170.543C200.229 169.727 199.778 169.019 199.199 168.418C198.641 167.796 197.986 167.313 197.235 166.969C196.505 166.626 195.711 166.454 194.852 166.454C194.015 166.454 193.221 166.626 192.47 166.969C191.74 167.313 191.086 167.796 190.506 168.418C189.948 169.019 189.498 169.727 189.154 170.543C188.832 171.337 188.671 172.195 188.671 173.118C188.671 174.02 188.832 174.878 189.154 175.694C189.498 176.488 189.948 177.186 190.506 177.787C191.086 178.387 191.74 178.86 192.47 179.203C193.2 179.546 193.994 179.718 194.852 179.718Z" fill="#557CD2"/>
<circle cx="104.5" cy="68.5" r="68.5" fill="#557CD2"/>
<circle cx="104.391" cy="68.6082" r="57.0833" fill="#EEF3FF"/>
<path d="M144.033 85.7176C132.592 82.9114 119.046 87.2514 113.99 89.7796C106.858 87.3137 69.0221 81.174 68.977 82.9064C68.9325 84.6153 67.1861 89.0347 66.1803 90.8135C110.746 125.89 144.018 86.2873 144.033 85.7176Z" fill="#CA891E"/>
<path d="M124.979 36.6903C129.458 34.8439 134.249 38.5585 133.577 43.356L132.602 50.3089C131.934 55.0787 126.359 57.3441 122.553 54.393L117.037 50.1161C113.23 47.1649 114.035 41.202 118.488 39.3663L124.979 36.6903Z" fill="#ECD5B0"/>
<path d="M87.1492 37.3996C82.9492 34.9855 77.715 38.0444 77.7567 42.8885L77.8172 49.9091C77.8587 54.7253 83.0903 57.6976 87.2487 55.2674L93.2752 51.7456C97.4336 49.3154 97.4119 43.2984 93.2361 40.8983L87.1492 37.3996Z" fill="#ECD5B0"/>
<path d="M115.11 89.1461L129.777 89.8023" stroke="#9B650D" stroke-width="1.0448" stroke-linecap="round"/>
<path d="M72.7342 58.1683C69.2065 68.6172 67.9978 83.2201 65.1396 88.8691C103.553 117.752 135.369 96.1551 146.475 81.7466C137.41 71.4311 136.105 59.7728 132.51 53.993C121.241 35.8745 79.3488 38.5758 72.7342 58.1683Z" fill="#FFE6BD"/>
<circle cx="93.1419" cy="68.5284" r="7.8907" fill="#F1CC90"/>
<circle cx="92.535" cy="69.1353" r="7.28373" fill="white"/>
<circle cx="94.356" cy="69.136" r="4.24884" fill="#CA891E"/>
<path d="M117.405 44.254C117.405 31.4613 89.1713 44.4571 82.7827 46.9954C75.3636 50.0258 85.5648 47.3002 89.2744 54.306C92.9839 61.3118 103.185 58.5704 101.949 57.352C100.712 56.1336 93.9113 45.7772 106.895 55.5244C117.281 63.3222 122.454 58.1643 122.97 54.306C126.061 44.8634 117.405 44.254 117.405 44.254Z" fill="#E7BB72"/>
<path d="M146.859 81.275C134.72 78.6043 120.557 83.6017 115.297 86.4343C107.709 84.0064 67.6489 77.6331 67.6489 80.3645C67.6489 82.1855 65.9291 86.9401 64.9175 88.8623C112.869 124.977 146.859 82.4891 146.859 81.275Z" fill="#CA891E"/>
<ellipse cx="105.479" cy="86.1138" rx="10.3294" ry="6.08889" fill="#9B650D"/>
<path d="M118.635 43.0355C118.635 30.2895 90.9163 43.2378 84.6442 45.7669C77.3605 48.7862 87.3756 46.0705 91.0175 53.0508C94.6593 60.031 104.674 57.2996 103.46 56.0857C102.247 54.8717 95.5698 44.5531 108.316 54.2647C118.514 62.034 123.592 56.895 124.098 53.0508C127.133 43.6427 118.635 43.0355 118.635 43.0355Z" fill="#CA891E"/>
<path d="M120.81 83.6132C120.81 87.6359 111.721 91.4417 106.022 91.4417C100.323 91.4417 92.6484 88.8321 92.6484 84.8094C92.6484 80.7867 99.3897 79.264 105.281 80.0609C111.241 78.9378 119.505 80.0609 120.81 83.6132Z" fill="#F1CC90"/>
<path d="M105.876 70.022L110.082 83.2237H101.671L105.876 70.022Z" fill="#F1CC90"/>
<path fill-rule="evenodd" clip-rule="evenodd" d="M103.848 86.7L105.365 85.0269L105.972 86.3654L106.345 86.8484H106.883C106.883 87.5188 106.203 88.0624 105.365 88.0624C104.527 88.0624 103.848 87.5188 103.848 86.8484H104.123C103.99 86.7998 103.893 86.7494 103.848 86.7Z" fill="#E8BB72"/>
<path d="M105.274 85.1439L104.878 84.8382C103.472 83.7569 102.543 83.0438 102.543 82.1685C102.543 81.4554 103.204 80.895 104.045 80.895C104.521 80.895 104.977 81.0826 105.274 81.3789C105.572 81.0826 106.028 80.895 106.503 80.895C107.345 80.895 108.006 81.4554 108.006 82.1685C108.006 83.0438 107.077 83.7569 105.67 84.8405L105.274 85.1439Z" fill="#CA891E"/>
<circle cx="95.5697" cy="66.1007" r="1.82093" fill="white"/>
<circle cx="94.6592" cy="67.619" r="0.910466" fill="white"/>
<path d="M99.8187 68.8318H85.2512C85.2512 66.4039 87.1935 61.8516 92.5349 61.8516C97.8763 61.8516 99.8187 66.1004 99.8187 68.8318Z" fill="#557CD2" fill-opacity="0.2"/>
<path d="M97.9978 84.9175L83.4303 77.6338" stroke="#EFBD6C" stroke-width="1.0448" stroke-linecap="round"/>
<path d="M98.011 87.7194L83.8414 91.5611" stroke="#EFBD6C" stroke-width="1.0448" stroke-linecap="round"/>
<path d="M114.893 82.9595L129.46 75.6758" stroke="#EFBD6C" stroke-width="1.0448" stroke-linecap="round"/>
<path d="M114.721 87.6659L129.029 90.9516" stroke="#EFBD6C" stroke-width="1.0448" stroke-linecap="round"/>
<circle cx="85.2513" cy="43.6426" r="0.606977" fill="#CA891E"/>
<circle cx="77.3604" cy="58.8169" r="0.606977" fill="#CA891E"/>
<circle cx="76.4519" cy="59.7292" r="0.305383" fill="#CA891E"/>
<circle cx="133.912" cy="86.7835" r="0.606977" transform="rotate(84.9518 133.912 86.7835)" fill="#F3B245"/>
<circle cx="132.923" cy="85.959" r="0.305383" transform="rotate(84.9518 132.923 85.959)" fill="#F3B245"/>
<circle cx="75.6417" cy="88.6082" r="0.606977" transform="rotate(84.9518 75.6417 88.6082)" fill="#F3B245"/>
<circle cx="74.6528" cy="87.7837" r="0.305383" transform="rotate(84.9518 74.6528 87.7837)" fill="#F3B245"/>
<circle cx="84.3427" cy="44.5549" r="0.305383" fill="#CA891E"/>
<path d="M121.381 45.2362C122.189 45.0087 123.885 45.4466 122.861 48.6292C122.466 49.5606 121.924 48.0799 122.103 47.2104C122.282 46.341 120.441 45.5008 121.381 45.2362Z" fill="#FFF0D7"/>
<path d="M115.011 39.387C115.763 39.0144 117.512 39.132 117.091 42.449C116.875 43.4372 116.069 42.0818 116.085 41.1942C116.101 40.3067 114.136 39.8204 115.011 39.387Z" fill="#FFF0D7"/>
<path d="M121.571 63.9336C119.142 64.6585 113.307 65.9995 112.329 69.0439C114.612 68.5003 116.46 66.7606 120.701 69.0439" stroke="#CA891E" stroke-width="1.49727" stroke-linecap="round"/>
<path d="M121.462 64.1509C118.49 65.2382 113.307 67.4128 113.307 68.3914" stroke="#CA891E" stroke-width="1.49727" stroke-linecap="round"/>
<path d="M92.3223 71.98C87.7585 71.98 84.0588 74.5113 84.0588 77.6339C90.7221 77.0266 94.3589 76.9717 100.586 77.6339C100.586 74.5113 96.8861 71.98 92.3223 71.98Z" fill="#FFE6BD"/>
<circle cx="0.305383" cy="0.305383" r="0.305383" transform="matrix(-1 0 0 1 89.45 73.9365)" fill="#CA891E"/>
<circle cx="0.305383" cy="0.305383" r="0.305383" transform="matrix(-1 0 0 1 91.6245 75.6758)" fill="#CA891E"/>
<circle cx="0.305383" cy="0.305383" r="0.305383" transform="matrix(-1 0 0 1 94.2339 73.501)" fill="#CA891E"/>
<path d="M104.958 81.9269C105.654 84.2275 105.555 88.4243 99.5852 86.8067" stroke="#CA891E" stroke-width="1.0448"/>
<path d="M105.551 82.2581C104.831 84.3565 104.875 88.2766 110.808 87.17" stroke="#CA891E" stroke-width="1.0448"/>
</svg>
